Coordinates
version=1
nRows=8
nColumns=63
inDegrees=yes

Units are S.I. units (second, meters, Newtons, ...)
If the header above contains a line with 'inDegrees', this indicates whether rotational values are in degrees (yes) or radians (no).

endheader
time	pelvis_tilt	pelvis_list	pelvis_rotation	pelvis_tx	pelvis_ty	pelvis_tz	hip_flexion_r	hip_adduction_r	hip_rotation_r	knee_angle_r	knee_angle_r_beta	ankle_angle_r	subtalar_angle_r	mtp_angle_r	hip_flexion_l	hip_adduction_l	hip_rotation_l	knee_angle_l	knee_angle_l_beta	ankle_angle_l	subtalar_angle_l	mtp_angle_l	L5_S1_Flex_Ext	L5_S1_Lat_Bending	L5_S1_axial_rotation	L4_L5_Flex_Ext	L4_L5_Lat_Bending	L4_L5_axial_rotation	L3_L4_Flex_Ext	L3_L4_Lat_Bending	L3_L4_axial_rotation	L2_L3_Flex_Ext	L2_L3_Lat_Bending	L2_L3_axial_rotation	L1_L2_Flex_Ext	L1_L2_Lat_Bending	L1_L2_axial_rotation	L1_T12_Flex_Ext	L1_T12_Lat_Bending	L1_T12_axial_rotation	Abs_r3	Abs_r2	Abs_r1	Abs_t1	Abs_t2	neck_flexion	neck_bending	neck_rotation	arm_flex_r	arm_add_r	arm_rot_r	elbow_flex_r	pro_sup_r	wrist_flex_r	wrist_dev_r	arm_flex_l	arm_add_l	arm_rot_l	elbow_flex_l	pro_sup_l	wrist_flex_l	wrist_dev_l
      6.27272727	     -1.85201413	      3.47397385	     93.23002510	      0.07457698	      0.54368331	      0.80460574	     -1.91380513	      2.68658168	     -5.68008086	     10.22330681	      0.17843036	     27.30352454	      8.07554909	      0.00000000	     -4.28857016	     -2.17497887	    -10.27772217	      5.48724468	      0.09577049	     28.62782678	     10.49416855	      0.00000000	     -0.13236224	      0.02510524	     -0.14029390	     -0.24580992	      0.03338998	     -0.14906227	     -0.21745793	      0.06104089	     -0.14906227	     -0.15127681	      0.06104089	     -0.12275717	     -0.12291158	      0.05119462	     -0.11398880	     -0.07563178	      0.03888802	     -0.10522043	     -0.94545025	      0.28399555	     -0.78027260	      0.00000000	      0.00000000	      8.72775105	      2.38783964	    -26.36822709	     81.51406890	    -56.98565191	     12.33186205	    142.90428483	     88.81578706	     -7.86834354	     31.11635251	     69.68378614	     -0.63674612	     28.59044972	    119.91463570	     89.31381102	    -11.16629981	      1.99201142
      6.29545455	     -1.76745108	      3.42140282	     93.02279281	      0.07554472	      0.54383615	      0.80482911	     -1.98455141	      2.84547049	     -5.07965957	      9.81755713	      0.17134870	     27.17850702	      7.78447182	      0.00000000	     -4.33238293	     -2.25186027	    -10.00369709	      5.28373472	      0.09221857	     28.50317629	      9.91067437	      0.00000000	     -0.13781075	      0.04417174	     -0.12197223	     -0.25592834	      0.05874841	     -0.12959549	     -0.22640928	      0.10739916	     -0.12959549	     -0.15750390	      0.10739916	     -0.10672570	     -0.12797106	      0.09007501	     -0.09910243	     -0.07874506	      0.06842202	     -0.09147917	     -0.98436838	      0.49967953	     -0.67837293	      0.00000000	      0.00000000	      8.47986094	      3.54050951	    -27.30785998	     82.54331623	    -57.79791602	     12.45813078	    143.94801037	     88.93199568	     -7.68460391	     30.40245344	     70.60988456	      0.87414355	     29.11706237	    118.78931577	     89.25064544	    -12.39990993	      0.01517035
      6.31818182	     -1.89875804	      3.17207095	     92.86075919	      0.07688958	      0.54394704	      0.80512345	     -1.84225744	      2.76040820	     -4.72049432	      9.46109346	      0.16512723	     27.07491344	      7.80014914	      0.00000000	     -4.14049151	     -2.14279812	     -9.96763496	      5.12925753	      0.08952243	     28.32177821	      9.77498167	      0.00000000	     -0.13108431	      0.03681838	     -0.22754646	     -0.24343666	      0.04896844	     -0.24176811	     -0.21535841	      0.08952020	     -0.24176811	     -0.14981625	      0.08952020	     -0.19910315	     -0.12172489	      0.07508003	     -0.18488150	     -0.07490157	      0.05703166	     -0.17065985	     -0.93632209	      0.41649683	     -1.26554515	      0.00000000	      0.00000000	      6.99401412	      4.04313717	    -27.55936795	     83.11002576	    -57.57300968	     12.55111218	    144.66551320	     89.04623163	     -7.45915466	     29.97519956	     71.49787149	      1.64772570	     29.38166568	    118.65293594	     89.20222833	    -12.67288628	     -0.58211728
      6.34090909	     -1.96545812	      2.85695861	     92.92786891	      0.07782016	      0.54396434	      0.80584795	     -1.71327363	      2.85373437	     -3.25915943	      8.89391875	      0.15522817	     26.64213656	      5.93416589	      0.00000000	     -3.84018804	     -2.06910080	     -8.91111631	      4.90673133	      0.08563862	     27.91050108	      8.55564163	      0.00000000	     -0.13294733	      0.04120116	     -0.37352039	     -0.24689649	      0.05479755	     -0.39686542	     -0.21841917	      0.10017651	     -0.39686542	     -0.15194551	      0.10017651	     -0.32683034	     -0.12345489	      0.08401741	     -0.30348532	     -0.07596611	      0.06382060	     -0.28014030	     -0.94962951	      0.46607579	     -2.07740838	      0.00000000	      0.00000000	      5.33320267	      3.76321659	    -27.95852053	     83.13230065	    -57.09015688	     11.71502171	    145.19658657	     89.14350599	     -6.05212079	     29.63927997	     72.67841658	      2.16514454	     30.66091363	    118.30082055	     89.16559998	    -15.99860181	     -4.25888588
      6.36363636	     -2.02213550	      2.48130649	     92.65517883	      0.07906151	      0.54377356	      0.80691021	     -1.38719073	      2.79951072	     -2.91867768	      8.58909586	      0.14990800	     26.59946272	      6.04456783	      0.00000000	     -3.46836146	     -2.02010323	     -9.02196090	      4.75583318	      0.08300495	     27.61819018	      8.35908293	      0.00000000	     -0.14096987	      0.05557083	     -0.46339081	     -0.26179515	      0.07390921	     -0.49235273	     -0.23159940	      0.13511492	     -0.49235273	     -0.16111447	      0.13511492	     -0.40546696	     -0.13090462	      0.11332004	     -0.37650503	     -0.08055019	      0.08607922	     -0.34754311	     -1.00693370	      0.62862836	     -2.57724065	      0.00000000	      0.00000000	      3.91269739	      3.21244751	    -28.47472990	     83.31043562	    -56.57599101	     11.34026012	    145.63544055	     89.18392571	     -6.00285611	     29.78804000	     73.64647551	      2.40365306	     31.11807721	    119.05393492	     89.17906367	    -15.96481511	     -4.18624267
      6.38636364	     -2.12534237	      2.10441686	     92.55743262	      0.08000080	      0.54368040	      0.80839181	     -1.06591771	      2.72247517	     -2.55117868	      8.25121076	      0.14401080	     26.50637886	      5.79762808	      0.00000000	     -3.03449306	     -1.91729745	     -8.62191971	      4.62928244	      0.08079622	     27.18554908	      7.67423159	      0.00000000	     -0.15828589	      0.06031111	     -0.58605693	     -0.29395274	      0.08021377	     -0.62268549	     -0.26004790	      0.14664043	     -0.62268549	     -0.18090495	      0.14664043	     -0.51279982	     -0.14698428	      0.12298641	     -0.47617126	     -0.09044456	      0.09342191	     -0.43954270	     -1.13062032	      0.68225132	     -3.25947285	      0.00000000	      0.00000000	      2.37290589	      2.16704169	    -29.46591151	     82.66744861	    -55.76740662	      9.68019145	    146.12321029	     89.18244753	     -4.50281733	     30.84724603	     74.26623428	      2.64286101	     31.41899403	    120.27384209	     89.21043561	    -15.38231431	     -3.00511713
      6.40909091	     -2.04272182	      1.81068974	     92.32010682	      0.08064998	      0.54373719	      0.81003772	     -0.81794257	      2.79366546	     -2.40910561	      7.90766810	      0.13801484	     26.27065729	      6.07355133	      0.00000000	     -2.67255597	     -2.00012978	     -8.72139144	      4.54322944	      0.07929431	     26.91761150	      7.41202840	      0.00000000	     -0.18566515	      0.09918584	     -0.68829249	     -0.34479875	      0.13191717	     -0.73131077	     -0.30502927	      0.24116045	     -0.73131077	     -0.21219670	      0.24116045	     -0.60225592	     -0.17240866	      0.20225977	     -0.55923764	     -0.10608907	      0.15363887	     -0.51621936	     -1.32618760	      1.12201007	     -3.82807632	      0.00000000	      0.00000000	      0.85322561	      1.04273863	    -29.90487927	     82.32016046	    -55.18783668	      8.92110776	    146.45481544	     89.11876979	     -4.55501686	     31.30021055	     74.55947977	      2.98707677	     31.51628122	    121.27360467	     89.21894197	    -14.76080042	     -3.10037424
      6.43181818	     -2.06968463	      1.58840550	     92.50486972	      0.08072326	      0.54389953	      0.81175764	     -0.64298985	      2.73504520	     -3.04284805	      7.62926122	      0.13315573	     26.09523158	      6.79242225	      0.00000000	     -2.31283991	     -1.97212251	     -7.98654277	      4.49176961	      0.07839617	     26.53130878	      6.61957071	      0.00000000	     -0.22197355	      0.12108545	     -0.87113475	     -0.41222707	      0.16104365	     -0.92558067	     -0.36468034	      0.29440717	     -0.92558067	     -0.25369357	      0.29440717	     -0.76224291	     -0.20612464	      0.24691746	     -0.70779699	     -0.12683568	      0.18756137	     -0.65335106	     -1.58553484	      1.36974288	     -4.84499015	      0.00000000	      0.00000000	     -0.48962872	      0.07957491	    -30.48279560	     81.78417208	    -54.59635870	      7.69997876	    146.85450619	     89.03055731	     -3.49074705	     31.83485463	     74.37314096	      3.84849398	     30.51620034	    122.12215879	     89.21414577	    -10.51795108	     -1.85067957
